<svg width="512.000000" height="512.000000" viewBox="0 0 512 512" fill="none" xmlns="http://www.w3.org/2000/svg" xmlns:xlink="http://www.w3.org/1999/xlink">
	<desc>
			Created with Pixso.
	</desc>
	<defs>
		<clipPath id="clip2_1">
			<rect id="svg" width="512.000000" height="512.000000" fill="white" fill-opacity="0"/>
		</clipPath>
	</defs>
	<g clip-path="url(#clip2_1)">
		<path id="Rectangle 6" d="M120.84 468.19L152.04 474.36L154.88 483.34L148.64 497.38L129.92 503.55L118.01 488.4L120.84 468.19Z" fill="#FFFDE3" fill-opacity="1.000000" fill-rule="evenodd"/>
		<path id="Rectangle 1" d="M170.2 99.34L182.68 93.73L303.51 93.73L333.58 110.01L347.2 122.92L361.38 96.54L397.69 113.38L369.32 164.47L351.74 171.2L298.98 143.13L298.98 254.85L360.81 360.4L398.82 467.62L338.69 488.96L300.68 381.73L252.46 322.22L239.41 322.22L200.27 389.59L172.47 481.66L112.9 462.57L155.45 330.08L172.47 284.04L188.92 251.48L188.92 185.24L167.93 192.54L145.8 187.48L139 171.2L157.15 126.29L162.25 110.01L170.2 99.34Z" fill="#FFFFFF" fill-opacity="1.000000" fill-rule="evenodd"/>
		<path id="Rectangle 2" d="M208.21 37.96C208.21 18.22 224.21 2.22 243.95 2.22C263.69 2.22 279.69 18.22 279.69 37.96L279.69 39.46C279.69 59.2 263.69 75.2 243.95 75.2C224.21 75.2 208.21 59.2 208.21 39.46L208.21 37.96Z" fill="#FFFDE3" fill-opacity="1.000000" fill-rule="evenodd"/>
		<path id="Rectangle 4" d="M378.97 70.71L388.61 70.71L399.39 76.89L401.09 86.99L390.88 108.89L367.05 98.22L378.97 70.71Z" fill="#FFFDE3" fill-opacity="1.000000" fill-rule="evenodd"/>
		<path id="Rectangle 5" d="M230.33 92.05L255.29 94.29L251.32 117.87L242.81 127.41L230.33 92.05Z" fill="#FFFDE3" fill-opacity="1.000000" fill-rule="evenodd"/>
		<path id="Rectangle 3" d="M201.97 139.2L219.55 131.91L230.33 135.83L237.71 147.06L230.33 158.85L212.75 166.71L201.97 139.2Z" fill="#FFFDE3" fill-opacity="1.000000" fill-rule="evenodd"/>
		<path id="Rectangle 7" d="M352.3 485.03L380.67 473.8L386.91 490.64L381.8 503.55L367.62 509.17L352.3 500.75L352.3 485.03Z" fill="#FFFDE3" fill-opacity="1.000000" fill-rule="evenodd"/>
		<path id="path" d="M243.65 79.19C265.75 79.19 283.67 61.46 283.67 39.59C283.67 17.73 265.75 0 243.65 0C221.55 0 203.64 17.73 203.64 39.59C203.64 61.46 221.55 79.19 243.65 79.19ZM243.65 5.65C262.56 5.65 277.95 20.87 277.95 39.59C277.95 58.31 262.57 73.53 243.65 73.53C224.74 73.53 209.35 58.31 209.35 39.59C209.35 20.87 224.74 5.65 243.65 5.65ZM392.96 69.09C384.15 65.58 374.15 69.82 370.66 78.54L364.49 93.75L360.37 91.72L352.71 106.88L347.05 118.14L325.9 99.86C319.39 94.15 309.5 90.54 300.81 90.54L289.38 90.54C288.29 90.54 287.26 90.65 286.23 90.76C285.38 90.65 284.57 90.54 283.66 90.54L186.48 90.54C172.82 90.54 160.53 100.04 157.21 113.16L154.24 124.82C153.78 126.63 152.53 130.31 151.78 132.06L139.15 161.25C134.81 171.32 136.64 182.06 144.06 189.25C148.7 193.83 154.75 196.2 161.15 196.2C164.87 196.2 168.7 195.4 172.42 193.76L186.48 187.54L186.48 250.73C183.51 254.4 180.94 258.48 179.05 262.89L170.87 281.67C168.13 288.06 164.13 298.13 161.78 304.69L140.86 362.55C138.63 368.89 135.2 378.84 133.21 385.35L108 465.06L113.48 466.76L120.11 468.79L116.17 479.88C112.51 490.17 117.94 501.49 128.4 505.16C130.57 505.9 132.8 506.3 135.03 506.3C143.26 506.3 150.98 501.2 153.89 493.06L158.35 480.62L168.01 483.62L173.5 485.31L198.65 405.61C199.4 403.34 200.31 400.46 201.34 397.46L234.15 337.16C236.1 333.49 238.84 328.34 241.35 323.59L249.7 322.85C253.7 328.11 259.98 336.2 264.04 341.18L298.34 383.61C299.32 385.81 300.23 388.02 300.8 389.6L331.39 476.04L337.05 492.05L342.42 490.18L347.1 488.54L350.41 498.37C353.21 506.69 361.05 511.95 369.39 511.95C371.51 511.95 373.62 511.61 375.74 510.93C386.2 507.48 391.85 496.22 388.37 485.87L384.88 475.46L401.8 469.58L365.56 367.14C362.7 359.22 357.62 348.13 353.33 340.88L301.94 252.98C301.54 252.41 301.2 251.85 300.8 251.22L300.8 145.95C303.66 147.87 308.23 150.7 311.09 152.4L330.41 163.88L332.87 166.03C338.01 170.5 344.59 172.94 351.33 172.94C352.53 172.94 353.73 172.82 354.94 172.65C362.89 171.63 369.97 167.22 374.43 160.54L377 156.75L379.86 152.57C381.97 149.4 384.83 144.48 386.72 140.8L401.3 111.95L396.15 109.41L395.3 108.96L402.5 91.13C406 82.44 401.76 72.59 392.96 69.09ZM264.39 96.18L220.32 231.94L215.18 231.94L259.24 96.18L264.39 96.18ZM211.12 170.51L205.86 172.83L191.97 141.84L197.17 139.52L211.12 170.51ZM204.49 141.89L216.15 136.74C221.93 134.2 228.67 136.8 231.24 142.46C233.81 148.17 231.18 154.9 225.41 157.4L213.75 162.54L204.49 141.89ZM215.06 174.98L218.67 173.4L216.32 168.26L216.09 167.69L227.75 162.61C229.7 161.76 231.36 160.51 232.78 159.15L209.17 231.96L192.19 231.96L192.19 185.06L215.06 174.98ZM202.81 254.58L208.58 254.58L200.15 313.58L196.55 321.61L193.17 321.9L202.81 254.58ZM214.44 254.58L226.67 254.58L208.66 294.62L214.44 254.58ZM253.25 96.18L244.27 123.84L234.27 96.18L253.25 96.18ZM228.21 96.18L241.36 132.73L239.01 140.02L223.18 96.18L228.21 96.18ZM177.74 185.22L170.08 188.55C166.99 189.91 164.02 190.53 161.28 190.53C155.67 190.53 151.04 188.16 148.07 185.22C143.62 180.91 140.3 172.88 144.42 163.44L157.05 134.25C157.9 132.22 159.28 128.31 159.79 126.16L162.77 114.51C165.45 103.87 175.4 96.18 186.49 96.18L215.07 96.18C215.76 96.18 216.5 96.23 217.18 96.35L230.44 133.12C225.7 129.89 219.47 129.1 213.81 131.58L202.15 136.67L200.09 132.03L192.2 135.49L192.2 124.45C192.2 122.87 190.95 121.63 189.35 121.63C187.8 121.63 186.49 122.87 186.49 124.45L186.49 138.02L161.51 149C160.02 149.62 159.39 151.32 160.02 152.73C160.54 153.8 161.57 154.43 162.65 154.43C163.05 154.43 163.45 154.31 163.79 154.2L186.72 144.07L200.67 175.13L177.74 185.22ZM148.53 491.19C146.47 497.02 140.92 500.64 135.03 500.64C133.49 500.64 131.83 500.36 130.29 499.79C122.86 497.19 118.92 489.16 121.55 481.76L125.61 470.5L152.87 478.93L148.53 491.19ZM169.73 478.18L115.2 461.33L116.92 455.96L171.45 472.81L169.73 478.18ZM229.12 334.5L196.02 395.25C195 398.42 193.97 401.48 193.22 403.91L173.16 467.38L118.57 450.52L138.63 387C140.63 380.72 144.06 370.65 146.29 364.48L167.16 306.62C169.5 300.17 173.45 290.16 176.13 283.94L184.31 265.16C185.96 261.31 188.14 257.74 190.71 254.58L197.12 254.58L186.48 328.12L193.92 327.49L190.09 335.98L205.75 342.89L213.41 325.86L234.62 324.1C232.67 327.88 230.67 331.67 229.12 334.5ZM216.04 319.96L243.65 258.47L269.31 315.6L216.04 319.96ZM260.68 254.57L291.27 254.57L315.39 311.76L287.39 314.08L260.68 254.57ZM373.92 505.56C372.44 506.01 370.89 506.3 369.4 506.3C363.4 506.3 357.85 502.51 355.86 496.63L352.48 486.67L379.51 477.34L382.95 487.69C385.47 495.1 381.41 503.07 373.92 505.56ZM394.5 466.13L340.54 484.86L338.65 479.48L392.61 460.82L394.5 466.13ZM348.43 343.72C352.43 350.63 357.52 361.49 360.15 369.01L390.73 455.44L336.77 474.17L306.19 387.74C305.56 385.81 304.47 383.21 303.27 380.61L268.51 337.62C265.2 333.54 260.29 327.32 256.45 322.35L271.77 321.04L281.55 342.88L297.21 335.97L289.84 319.57L323.67 316.8L300.69 262.15L348.43 343.72ZM381.58 138.26C379.87 141.71 377.06 146.52 375.12 149.41L372.26 153.65L369.69 157.44C366.15 162.75 360.5 166.27 354.2 167.06C353.23 167.17 352.26 167.29 351.35 167.29C345.98 167.29 340.77 165.3 336.65 161.74L333.86 159.31L314.07 147.54C311.16 145.85 306.47 142.9 303.67 141.09L300.82 139.16L300.82 124.45C300.82 122.87 299.56 121.63 297.96 121.63C296.36 121.63 295.1 122.87 295.1 124.45L295.1 231.93L226.33 231.93L270.4 96.17L300.81 96.17C308.13 96.17 316.65 99.34 322.13 104.09L344.31 123.27C343.4 124.91 342.42 126.55 341.8 127.46L338.94 131.7C338.09 132.99 338.43 134.75 339.74 135.6C340.2 135.94 340.78 136.1 341.34 136.1C342.26 136.1 343.17 135.65 343.69 134.86L345.86 131.63L346.6 130.56C347.75 128.8 349.86 125.24 350.89 123.09L357.86 109.4L388.5 124.57L381.58 138.26ZM391.07 119.54L360.37 104.33L362.94 99.29L393.64 114.45L391.07 119.54ZM397.19 89.05L390.16 106.42L369.64 96.29L375.99 80.62C378.27 74.84 384.9 72.01 390.85 74.34C396.67 76.66 399.53 83.23 397.19 89.05Z" fill="#000000" fill-opacity="1.000000" fill-rule="nonzero"/>
		<path id="Vector 1" d="M278 18L208.5 18" stroke="#000000" stroke-opacity="1.000000" stroke-width="14.000000" stroke-linecap="round"/>
		<path id="Vector 2" d="M186 243L301 243" stroke="#FF0000" stroke-opacity="1.000000" stroke-width="24.000000"/>
		<path id="Vector 3" d="M197.5 339.5L238.5 248.5M289 339.5L249 248.5" stroke="#FF0000" stroke-opacity="1.000000" stroke-width="23.000000"/>
	</g>
</svg>
