<svg width="512.000000" height="512.000000" viewBox="0 0 512 512" fill="none" xmlns="http://www.w3.org/2000/svg" xmlns:xlink="http://www.w3.org/1999/xlink">
	<desc>
			Created with Pixso.
	</desc>
	<defs>
		<clipPath id="clip2_6">
			<rect id="svg" width="512.000000" height="512.000000" fill="white" fill-opacity="0"/>
		</clipPath>
	</defs>
	<g clip-path="url(#clip2_6)">
		<path id="Rectangle 8" d="M127.66 48.02C139.86 40.65 146.82 38.96 159.42 44.11L205.84 52.91L247.37 31.89L263.98 68.06L220.5 91.51C199.6 97.81 191.13 92.96 168.7 87.6L236.13 154.55C312.51 123.58 357.29 113.51 437.93 101.29L450.63 166.28C373.92 176.81 330.59 189.29 253.72 218.08L258.61 261.57L224.4 280.63L204.86 354.91L197.53 475.12L134.01 469.75L138.9 354.91L159.42 242.03L113.98 195.6L100.79 222.97L81.73 228.83L69.51 222.97L41.66 157.97L37.27 148.69L41.66 134.03L127.66 48.02Z" fill="#FFFFFF" fill-opacity="1.000000" fill-rule="evenodd"/>
		<path id="Rectangle 9" d="M9.9 48.02C9.9 26.97 26.97 9.9 48.02 9.9C69.06 9.9 86.13 26.97 86.13 48.02L86.13 49C86.13 70.05 69.06 87.11 48.02 87.11C26.97 87.11 9.9 70.05 9.9 49L9.9 48.02Z" fill="#FFFDE3" fill-opacity="1.000000" fill-rule="evenodd"/>
		<path id="Rectangle 11" d="M250.79 34.83C265.67 25.02 273.74 20.31 282.55 26.03L289.88 40.69C283.68 52.03 276.02 54.77 262.03 59.26L250.79 34.83Z" fill="#FFFDE3" fill-opacity="1.000000" fill-rule="evenodd"/>
		<path id="Rectangle 13" d="M144.76 471.21L179.94 473.66L174.57 496.14L158.44 502L144.76 498.58L144.76 471.21Z" fill="#FFFDE3" fill-opacity="1.000000" fill-rule="evenodd"/>
		<path id="Rectangle 12" d="M97.85 134.03L118.86 129.14L125.71 144.29L118.86 164.33L91.5 155.04L97.85 134.03Z" fill="#FFFDE3" fill-opacity="1.000000" fill-rule="evenodd"/>
		<path id="Rectangle 10" d="M76.36 97.38L94.92 80.76L115.44 115.46L106.65 112.04L76.36 97.38Z" fill="#FFFDE3" fill-opacity="1.000000" fill-rule="evenodd"/>
		<path id="Rectangle 14" d="M443.79 115.46L489.72 109.11L499.49 118.39L502.91 126.21L496.56 140.87L456.5 151.62L443.79 151.62L443.79 115.46Z" fill="#FFFDE3" fill-opacity="1.000000" fill-rule="evenodd"/>
		<path id="path" d="M505.75 124.27C504.01 112.88 493.48 105.08 482.14 106.82L443.06 112.87L440.23 97.69L437.33 98.24L428.6 99.89L426.21 100.34L365.91 111.73C351.8 114.4 330.03 119.74 316.32 123.87L302.48 128.05C289 132.13 268.15 139.38 255.03 144.56L235.05 152.44L231.51 148.87L175.46 92.4L198.83 96.32C200.82 96.65 202.92 96.81 205.08 96.81C211.74 96.81 218.85 95.26 224.44 92.45L253.25 77.93L269.14 69.93L265.96 63.52L282.79 53.35C291.2 48.27 293.92 37.29 288.88 28.81C283.83 20.34 272.93 17.6 264.52 22.68L250.02 31.44L247.96 27.28L232.08 35.29L204.86 48.99L182.78 45.29C179.78 44.79 174.88 43.88 171.89 43.28L153.92 39.66C143.02 37.47 130.41 41.3 122.55 49.22L114.35 56.14L105.99 64.57L93.43 77.22L43.23 127.8C33.23 137.88 31.26 154.05 38.53 166.25L45 177.12C46.02 178.83 47.81 182.47 48.55 184.35L60.89 215.42C65.12 226.08 74.36 232.69 85.03 232.69L85.18 232.69C95.91 232.62 105.15 225.89 109.28 215.1L112.39 206.95L115 200.11L118.53 203.67L157.91 243.34C156.2 247.5 154.75 252.23 153.72 257.8L138.92 337.94C138.5 340.18 138.09 342.76 137.71 345.47L137.16 347.73L137.39 347.79C136.55 354.18 135.86 361.08 135.6 366.28L131.03 456.5L130.73 462.45L130.28 471.38L130.14 474.36L140 474.87L139.22 483.12C138.11 494.58 146.45 504.78 157.84 505.89C158.52 505.96 159.19 506 159.86 506C170.4 506 179.41 497.93 180.45 487.15L181.42 477L201.06 478L201.2 475.03L206.52 369.93C206.66 367.05 207.08 362.8 207.58 358.78L225.67 283.97L235.6 278.64L241.11 287.28L256.04 277.6L251.31 270.19L261.79 264.57L256.36 220.87L280.89 211.18C292.11 206.76 311.33 200.08 322.85 196.59L336.7 192.41C347.99 189 367.35 184.26 378.97 182.07L435.84 171.32L439.99 170.54L447.47 169.13L453.28 168.03L450.66 153.94L488.41 148.09C499.73 146.32 507.49 135.66 505.75 124.27ZM267.56 27.8C273.16 24.41 280.43 26.25 283.8 31.89C287.16 37.54 285.35 44.87 279.74 48.25L263.29 58.19L252.68 36.8L267.56 27.8ZM245.31 35.29L261.19 67.27L255.9 69.94L240.02 37.95L245.31 35.29ZM110.17 68.79L118.42 60.48L126.73 53.44C133.25 46.86 143.72 43.66 152.75 45.5L170.73 49.12C173.77 49.73 178.75 50.66 181.8 51.17L205.19 55.1C205.52 55.08 205.99 55 206.3 54.93L234.71 40.62L250.59 72.61L216.2 89.21C212.61 90.25 208.74 90.86 205.03 90.86C203.21 90.86 201.45 90.74 199.8 90.45L175.97 86.46C172.6 85.89 167.11 84.87 163.77 84.2L149.3 81.29C147.68 80.95 146.14 82.01 145.82 83.63C145.5 85.25 146.54 86.82 148.14 87.13L151.25 87.76L162.61 90.05C163.39 90.2 164.3 90.38 165.26 90.56L227.33 153.1L176.97 203.84L108.92 70.33C109.32 69.8 109.72 69.25 110.17 68.79ZM185.15 229.31L182.07 300.64L177.71 302.99L173 269.78L169.89 244.68L185.15 229.31ZM104.43 74.58L172.58 208.26L168.81 212.05L100.67 78.35L104.43 74.58ZM122.55 163.73L113.96 160.39L111 159.26L94.37 152.82L99.11 140.39C101.46 134.24 108.31 131.16 114.41 133.54C120.51 135.9 123.55 142.8 121.21 148.95L116.47 161.37L122.55 163.73ZM120.43 169.3L118.31 174.87L85.17 162.03L87.29 156.47L120.43 169.3ZM96.27 82.79L110.17 110.05L92.75 101.74L82.39 96.79L96.27 82.79ZM77.93 101.27L114.61 118.78L118.27 125.97L74.26 104.96L77.93 101.27ZM106.87 204.83L103.76 212.97C99.89 223.07 91.61 226.7 85.14 226.74C78.69 226.74 70.34 223.19 66.38 213.22L54.05 182.14C53.18 179.98 51.25 176.05 50.07 174.06L43.6 163.2C37.7 153.3 39.31 140.2 47.41 132.03L59.97 119.38L68.33 110.95C68.84 110.43 69.49 110.02 70.09 109.57L106.93 127.14C101.07 128.25 95.9 132.23 93.6 138.25L88.86 150.67L83.9 148.76L80.7 157.14L72.52 148.89C71.36 147.73 69.49 147.73 68.33 148.89C67.18 150.06 67.18 151.94 68.33 153.11L76.52 161.35L78.38 163.22L77.52 165.45L68.21 189.87C67.62 191.4 68.39 193.13 69.91 193.72C70.26 193.85 70.62 193.92 70.97 193.92C72.16 193.92 73.28 193.19 73.73 192.01L83.05 167.59L116.19 180.43L106.87 204.83ZM152.02 228.97L118.54 195.25L117.33 194.04L121.71 182.56L128.08 165.87L121.99 163.51L126.73 151.08C127.53 149.01 127.85 146.88 127.86 144.77L133.17 155.2L164.41 216.47L152.02 228.97ZM174.56 486.57C173.82 494.28 167.39 500.04 159.86 500.04C159.38 500.04 158.9 500.02 158.41 499.97C150.28 499.18 144.33 491.89 145.12 483.7L145.94 475.18L175.52 476.7L174.56 486.57ZM195.46 471.74L136.36 468.71L136.66 462.75L195.76 465.79L195.46 471.74ZM201.77 357.68C201.23 361.96 200.77 366.54 200.62 369.62L196.06 459.85L136.96 456.81L142.13 354.7L142.54 354.72C142.74 352.87 142.95 351.04 143.19 349.22L142.93 349.15L143.54 346.63C143.92 343.89 144.34 341.29 144.76 339.04L159.56 258.91C160.32 254.8 161.3 251.15 162.46 247.92L164.58 250.05L167.15 270.52L173.07 312.25L181.78 307.56L180.57 335.7L198.31 336.48L199.98 297.8L218.7 287.74L201.77 357.68ZM200.26 290.88L202.99 227.51L232.4 273.6L200.26 290.88ZM248.12 265.16L209.56 204.72L235.71 178.38L250.11 218.27L255.44 261.23L248.12 265.16ZM377.84 176.21C366.05 178.45 346.46 183.24 335.02 186.7L321.19 190.87C309.53 194.41 290.11 201.16 278.77 205.63L255.21 214.93L240.33 173.73L239.62 157.05L257.19 150.11C269.97 145.07 291.05 137.74 304.19 133.77L318.02 129.59C325.17 127.44 334.55 124.95 343.86 122.69L343.73 122L423.87 106.85L434.78 165.45L377.84 176.21ZM440.59 164.36L429.69 105.76L435.51 104.66L446.41 163.25L440.59 164.36ZM487.54 142.17L449.6 148.05L444.15 118.75L483.04 112.71C491.15 111.42 498.67 117.05 499.91 125.18C501.15 133.31 495.62 140.92 487.54 142.17ZM76.7 77.23C92.87 60.94 92.87 34.51 76.7 18.22C68.62 10.07 58.01 6 47.41 6C36.81 6 26.21 10.07 18.12 18.22C1.95 34.51 1.95 60.94 18.12 77.23C26.21 85.37 36.81 89.45 47.41 89.45C58.02 89.45 68.61 85.37 76.7 77.23ZM11.91 47.71C11.91 38.16 15.6 29.18 22.31 22.42C29.01 15.67 37.93 11.95 47.41 11.95C56.89 11.95 65.81 15.67 72.51 22.42C79.21 29.18 82.91 38.17 82.91 47.71C82.91 57.26 79.21 66.25 72.51 73C65.81 79.76 56.89 83.48 47.41 83.48C37.92 83.48 29.01 79.76 22.3 73C15.6 66.25 11.91 57.27 11.91 47.71Z" fill="#000000" fill-opacity="1.000000" fill-rule="nonzero"/>
		<path id="Vector 1" d="M58.27 9L10 58.99" stroke="#000000" stroke-opacity="1.000000" stroke-width="14.000000" stroke-linecap="round"/>
		<path id="Rectangle 15" d="M147.5 233L231 148.5L240 157L240.5 174L164 250.5L147.5 233Z" fill="#FF0000" fill-opacity="1.000000" fill-rule="evenodd"/>
		<path id="Vector 4" d="M189 336.5L194.3 213.16C194.51 208.25 200.94 206.56 203.54 210.73L248.5 283" stroke="#FF0000" stroke-opacity="1.000000" stroke-width="21.000000"/>
	</g>
</svg>
