<svg width="360" height="490" viewBox="0 0 360 490" fill="none" xmlns="http://www.w3.org/2000/svg">
    <path
        d="M308.252 482.796L259.018 483.616C246.368 483.827 236 473.63 236 460.979C236 460.116 236.601 459.369 237.445 459.185L268.606 452.394C272.836 451.472 277.195 451.299 281.484 451.884L293.436 453.514C302.696 454.777 310.969 459.954 316.154 467.731C320.407 474.11 315.918 482.668 308.252 482.796Z"
        fill="#FFD7C0" stroke="black" stroke-width="7" />
    <path
        d="M310.683 191.06L305.5 192.5V246L324.436 240.786C333.957 238.164 341.145 230.337 342.95 220.629C346.435 201.874 329.063 185.955 310.683 191.06Z"
        fill="#FFD7C0" stroke="black" stroke-width="7" />
    <path
        d="M117.707 78.1923L114.707 81.6211C112.159 84.5321 107.681 84.6812 104.946 81.9461C102.661 79.661 102.337 76.0687 104.177 73.4117L106.77 69.6657C108.649 66.9508 112.181 65.9346 115.216 67.2354C119.552 69.0937 120.813 74.6419 117.707 78.1923Z"
        fill="#FF0000" stroke="#FF0000" stroke-width="7" />
    <path
        d="M216.517 190.161L212 186V242.5L249.161 258.883C255.273 261.577 262 262.567 268.629 261.747L307 257L304.5 186L250.154 198.94C238.18 201.791 225.571 198.5 216.517 190.161Z"
        fill="white" stroke="black" stroke-width="7" />
    <path
        d="M97.6399 295.068L124.577 172.984C125.992 166.568 131.678 162 138.248 162H193.876C198.782 162 203.195 164.987 205.017 169.543L210.542 183.356C212.168 187.42 213.059 191.74 213.176 196.115L215.762 293.532C215.918 299.425 217.481 305.196 220.319 310.363L231.841 331.339C233.798 334.902 232.244 339.376 228.5 340.958L249.79 354.013C257.646 358.83 263.422 366.406 265.986 375.257L284.52 439.216C286.132 444.779 282.697 450.543 277.037 451.772L213.925 465.476C206.651 467.056 199.709 461.7 199.39 454.263L197.187 402.853C197.072 400.188 195.454 397.82 193.012 396.745L167.039 385.317C154.68 379.879 140.341 381.605 129.626 389.82L109.774 405.04C104.679 408.946 100.688 414.111 98.1936 420.027L87.7114 444.884C85.8475 449.304 81.1078 451.778 76.416 450.78L24.3174 439.695C18.9029 438.543 15.802 432.822 17.792 427.657L34.2688 384.887C36.3921 379.376 39.8039 374.453 44.219 370.53L77.5 340.958C73.9138 339.442 72.6621 334.99 74.9334 331.828L91.5597 308.682C94.4892 304.603 96.5579 299.971 97.6399 295.068Z"
        fill="white" />
    <path
        d="M77.5 340.958V340.958C73.9138 339.442 72.6621 334.99 74.9334 331.828L91.5597 308.682C94.4892 304.603 96.5579 299.971 97.6399 295.068L124.577 172.984C125.992 166.568 131.678 162 138.248 162H193.876C198.782 162 203.195 164.987 205.017 169.543L210.542 183.356C212.168 187.42 213.059 191.74 213.176 196.115L215.762 293.532C215.918 299.425 217.481 305.196 220.319 310.363L231.841 331.339C233.798 334.902 232.244 339.376 228.5 340.958V340.958M77.5 340.958L99.095 350.082C103.652 352.008 108.549 353 113.496 353H192.504C197.451 353 202.348 352.008 206.905 350.082L228.5 340.958M77.5 340.958L44.219 370.53C39.8039 374.453 36.3921 379.376 34.2688 384.887L17.792 427.657C15.802 432.822 18.9029 438.543 24.3174 439.695L76.416 450.78C81.1078 451.778 85.8475 449.304 87.7114 444.884L98.1936 420.027C100.688 414.111 104.679 408.946 109.774 405.04L129.626 389.82C140.341 381.605 154.68 379.879 167.039 385.317L193.012 396.745C195.454 397.82 197.072 400.188 197.187 402.853L199.39 454.263C199.709 461.7 206.651 467.056 213.925 465.476L277.037 451.772C282.697 450.543 286.132 444.779 284.52 439.216L265.986 375.257C263.422 366.406 257.646 358.83 249.79 354.013L228.5 340.958"
        stroke="black" stroke-width="7" />
    <path
        d="M100.965 280.762C96.9671 279.677 92.8469 282.038 91.7619 286.035C90.6769 290.033 93.0379 294.153 97.0354 295.238L100.965 280.762ZM215.677 295.31C219.715 294.384 222.236 290.36 221.31 286.323C220.384 282.285 216.36 279.764 212.323 280.69L215.677 295.31ZM97.0354 295.238C113.914 299.82 130.091 302.688 147.782 303.202L148.218 288.209C131.963 287.736 116.979 285.109 100.965 280.762L97.0354 295.238ZM146.439 366.952L155.439 296.658L140.561 294.753L131.561 365.048L146.439 366.952ZM147.782 303.202C151.021 303.297 154.306 303.312 157.65 303.245L157.35 288.248C154.248 288.31 151.209 288.296 148.218 288.209L147.782 303.202ZM157.65 303.245C174.87 302.9 193.592 300.378 215.677 295.31L212.323 280.69C190.978 285.588 173.303 287.928 157.35 288.248L157.65 303.245ZM176.893 364.737L164.893 294.484L150.107 297.009L162.107 367.263L176.893 364.737ZM140.5 289.25V295.706H155.5V289.25H140.5ZM165 295.746V289.25H150V295.746H165ZM152.75 277C145.985 277 140.5 282.485 140.5 289.25H155.5C155.5 290.769 154.269 292 152.75 292V277ZM152.75 292C151.231 292 150 290.769 150 289.25H165C165 282.485 159.515 277 152.75 277V292Z"
        fill="#FF0000" />
    <path
        d="M222 141.748V109.46C222 104.584 220.637 99.8047 218.066 95.6619C214.795 90.3926 209.759 86.4564 203.856 84.5554L197.878 82.6302C188.662 79.6623 178.65 80.4252 169.989 84.7553L166.637 86.4313C161.933 88.7834 157.785 92.1113 154.468 96.1932L140.139 113.829C135.799 119.17 133.035 125.616 132.157 132.442L130.693 143.834C129.618 152.194 132.237 160.607 137.866 166.879C143.361 173.002 151.2 176.5 159.427 176.5H187.248C194.562 176.5 201.69 174.192 207.617 169.905C216.65 163.37 222 152.897 222 141.748Z"
        fill="#FFD7C0" stroke="black" stroke-width="7" />
    <path
        d="M199.027 58H148.799C140.099 58 131.894 62.0441 126.594 68.9436L114.295 84.9561C110.537 89.8481 108.5 95.844 108.5 102.012V140.582C108.5 148.974 112.66 156.82 119.606 161.53L125.166 165.299C132.508 170.277 142.402 169.036 148.287 162.399L150.756 159.616C156.469 153.173 155.266 143.184 148.186 138.283L146.664 137.229C143.743 135.207 142 131.88 142 128.327C142 122.347 146.847 117.5 152.827 117.5H175.25C177.873 117.5 180 115.373 180 112.75V111.567C180 109.597 178.403 108 176.433 108C173.281 108 171.678 104.211 173.873 101.949L181.996 93.58C183.597 91.9307 185.797 91 188.095 91H206.112C214.335 91 221 84.3345 221 76.1123C221 71.0551 218.433 66.3437 214.183 63.6021L210.939 61.5091C207.388 59.2184 203.253 58 199.027 58Z"
        fill="black" />
    <path
        d="M101.51 74.5981L105.704 69.1611C109.489 64.2556 109.821 57.5133 106.537 52.2594L106.392 52.0274C103.675 47.6793 98.8425 45.1128 93.7183 45.2958C90.0468 45.4269 86.5656 46.962 83.9927 49.5843L66.4797 67.4341C63.5971 70.3722 61.9124 74.2788 61.7542 78.3918L61.6656 80.6935C61.5593 83.4583 62.5193 86.1582 64.3471 88.2353C68.6619 93.1385 76.3094 93.1134 80.5919 88.182L86.0022 81.952C87.9064 79.7593 90.6678 78.5 93.5719 78.5C96.6797 78.5 99.6118 77.0588 101.51 74.5981Z"
        fill="black" />
    <path
        d="M199.027 58H148.799C140.099 58 131.894 62.0441 126.594 68.9436L114.295 84.9561C110.537 89.8481 108.5 95.844 108.5 102.012V140.582C108.5 148.974 112.66 156.82 119.606 161.53L125.166 165.299C132.508 170.277 142.402 169.036 148.287 162.399L150.756 159.616C156.469 153.173 155.266 143.184 148.186 138.283L146.664 137.229C143.743 135.207 142 131.88 142 128.327C142 122.347 146.847 117.5 152.827 117.5H175.25C177.873 117.5 180 115.373 180 112.75V111.567C180 109.597 178.403 108 176.433 108C173.281 108 171.678 104.211 173.873 101.949L181.996 93.58C183.597 91.9307 185.797 91 188.095 91H206.112C214.335 91 221 84.3345 221 76.1123C221 71.0551 218.433 66.3437 214.183 63.6021L210.939 61.5091C207.388 59.2184 203.253 58 199.027 58Z"
        stroke="black" stroke-width="7" />
    <path
        d="M101.51 74.5981L105.704 69.1611C109.489 64.2556 109.821 57.5133 106.537 52.2594L106.392 52.0274C103.675 47.6793 98.8425 45.1128 93.7183 45.2958C90.0468 45.4269 86.5656 46.962 83.9927 49.5843L66.4797 67.4341C63.5971 70.3722 61.9124 74.2788 61.7542 78.3918L61.6656 80.6935C61.5593 83.4583 62.5193 86.1582 64.3471 88.2353C68.6619 93.1385 76.3094 93.1134 80.5919 88.182L86.0022 81.952C87.9064 79.7593 90.6678 78.5 93.5719 78.5C96.6797 78.5 99.6118 77.0588 101.51 74.5981Z"
        stroke="black" stroke-width="7" />
    <path
        d="M70.5 472V449.5L28.5 440.5L24.5 451L15.9961 455.016C10.0518 457.823 5.87126 463.377 4.81899 469.866C4.12745 474.131 7.41981 478 11.74 478H64.5C67.8137 478 70.5 475.314 70.5 472Z"
        fill="#FFD7C0" />
    <path
        d="M45.5 454.5L24.5 451M24.5 451L15.9961 455.016C10.0518 457.823 5.87126 463.377 4.81899 469.866V469.866C4.12745 474.131 7.41981 478 11.74 478H64.5C67.8137 478 70.5 475.314 70.5 472V449.5L28.5 440.5L24.5 451Z"
        stroke="black" stroke-width="7" stroke-linecap="round" />
    <path
        d="M88.8277 183.898L118.5 164L135.5 166L120.228 197.443C119.079 199.808 118.186 202.288 117.563 204.841L113.5 221.5L111.351 230.903C110.439 234.89 113.697 238.6 117.769 238.212L204 230L198.5 277.5L95.5 280.5H83.0032C75.1147 280.5 67.9852 275.799 64.8778 268.548C63.3281 264.932 62.8954 260.935 63.6353 257.071L73.0952 207.669C74.954 197.962 80.6191 189.402 88.8277 183.898Z"
        fill="white" stroke="black" stroke-width="7" />
    <path
        d="M220.641 231.462L203.5 234.5L197.5 273L220.646 277.097C236.695 279.937 250.583 265.761 247.415 249.774C244.962 237.4 233.062 229.261 220.641 231.462Z"
        fill="#FFD7C0" stroke="black" stroke-width="7" />
</svg>